<svg width="24" height="24" viewBox="0 -1 24 24" fill="none" xmlns="http://www.w3.org/2000/svg">
<path d="M13.8026 7.49356C14.4876 6.76416 15.5835 6.76416 16.3141 7.40239L21.3828 12.0979C22.1134 12.7818 22.1134 13.8759 21.4741 14.6053C20.7892 15.3347 19.6932 15.3347 18.9626 14.6965L13.894 9.95531C13.1634 9.31708 13.1177 8.17738 13.8026 7.49356Z" fill="#0008CA"/>
<path d="M11.9754 9.91187C12.6604 9.18246 13.7563 9.18246 14.4869 9.82069L19.5555 14.5162C20.2862 15.2001 20.2862 16.2942 19.6469 17.0236C18.9619 17.753 17.866 17.753 17.1354 17.1148L12.0211 12.3736C11.3361 11.7354 11.2904 10.5957 11.9754 9.91187Z" fill="#0008CA"/>
<path d="M10.1039 12.1856C10.7889 11.4562 11.8848 11.4562 12.6154 12.0944L17.6841 16.79C18.4147 17.4738 18.4147 18.5679 17.7754 19.2973C17.0904 20.0267 15.9945 20.0267 15.2639 19.3885L10.1953 14.6929C9.5103 14.0091 9.46464 12.915 10.1039 12.1856Z" fill="#0008CA"/>
<path d="M8.1398 14.4672C8.82475 13.7378 9.92067 13.7378 10.6513 14.376L15.7199 19.0715C16.4506 19.7554 16.4506 20.8495 15.8113 21.5789C15.1263 22.3083 14.0304 22.3083 13.2998 21.6701L8.23113 16.9745C7.50051 16.2907 7.45485 15.1966 8.1398 14.4672Z" fill="#0008CA"/>
<path d="M13.7559 17.1125L13.6189 17.0213C13.208 16.6566 12.6143 16.7022 12.249 17.0669L9.92019 19.6198C9.55488 20.0301 9.60054 20.6228 9.96585 20.9875L10.1028 21.0787C10.5138 21.4434 11.1074 21.3978 11.4727 21.0331L13.8016 18.4801C14.1669 18.0699 14.1669 17.4772 13.7559 17.1125Z" fill="white" stroke="#0008CA"/>
<path d="M2.01974 2.16175L2.38505 1.84263C4.89654 -0.482352 8.86926 -0.300001 11.1981 2.20734L16.7667 7.81356L16.0384 8.95435C16.0384 8.95435 14.5772 9.77493 14.5315 9.95728C14.5315 10.094 12.294 9.95728 12.294 9.95728L12.8601 13.0223L8.80892 17.6522L1.65443 10.9602C-0.674404 8.45288 -0.537414 4.48673 2.01974 2.16175Z" fill="#0008CA"/>
<path d="M21.6559 2.52246L21.3363 2.20334C19.0074 0.0607069 15.4 0.243058 13.2995 2.52246L8.91579 7.30919L8.82446 8.768C8.82446 8.768 10.1944 9.543 10.1944 9.67976C10.1944 9.81653 12.2492 9.67976 12.2492 9.67976L14.7422 5.92851L20.8985 11.8012L22.0212 10.5459C24.1217 8.26654 23.9847 4.66509 21.6559 2.52246Z" fill="white"/>
<path d="M14.7224 6.0311L12.2024 8.72501C11.5632 9.40882 10.5129 9.45441 9.82795 8.81618C9.14299 8.17795 9.09733 7.12943 9.73662 6.44561L12.4764 3.4368L11.7915 2.7074L8.82335 5.89855C7.86442 6.94708 7.91008 8.63383 8.96034 9.59118L9.05167 9.68235C10.1019 10.6397 11.7915 10.5941 12.7504 9.54559L15.4442 6.67253L14.7224 6.0311Z" fill="#0008CA"/>
<path d="M21.0916 2.4349C23.4205 4.57753 23.5575 8.13339 21.4113 10.4584L20.481 11.4842L21.298 12.2058C21.4583 12.0454 21.5235 11.9652 21.5939 11.8716L22.2332 11.1878C24.7447 8.49809 24.5621 4.25842 21.8222 1.75108C19.0824 -0.756258 14.8814 -0.528318 12.3699 2.16137L11.7306 2.84519C11.5936 3.02754 11.411 3.20989 11.274 3.39225L11.9133 3.98489L13.0092 2.75401C15.1554 0.474617 18.7628 0.292265 21.0916 2.4349Z" fill="#0008CA"/>
<path d="M7.6358 11.4602L7.49881 11.369C7.08784 11.0043 6.49421 11.0499 6.1289 11.4146L3.80007 13.9675C3.43476 14.3778 3.48042 14.9704 3.84573 15.3351L3.98272 15.4263C4.39369 15.791 4.98732 15.7454 5.35263 15.3807L7.68146 12.8278C8.04677 12.4175 8.04677 11.8249 7.6358 11.4602Z" fill="white" stroke="#0008CA"/>
<path d="M9.69146 13.3274L9.55447 13.2362C9.1435 12.8715 8.54988 12.9171 8.18457 13.2818L5.85573 15.8347C5.49042 16.245 5.53609 16.8376 5.9014 17.2023L6.03839 17.2935C6.44936 17.6582 7.04298 17.6126 7.40829 17.2479L9.73713 14.695C10.1024 14.2847 10.0568 13.6921 9.69146 13.3274Z" fill="white" stroke="#0008CA"/>
<path d="M11.7462 15.1555L11.6092 15.0643C11.1982 14.6996 10.6046 14.7452 10.2393 15.1099L7.91042 17.6628C7.54511 18.0731 7.59077 18.6657 7.95608 19.0305L8.09307 19.1216C8.50404 19.4863 9.09767 19.4407 9.46298 19.076L11.7918 16.5231C12.2028 16.1128 12.1571 15.5202 11.7462 15.1555Z" fill="white" stroke="#0008CA"/>
</svg>
