<svg width="31" height="31" viewBox="0 0 31 31" fill="none" xmlns="http://www.w3.org/2000/svg">
  <path d="M15.5002 0C6.94424 0 0.000244141 6.944 0.000244141 15.5C0.000244141 24.056 6.94424 31 15.5002 31C24.0562 31 31.0002 24.056 31.0002 15.5C31.0002 6.944 24.0562 0 15.5002 0ZM15.5002 4.65C18.0732 4.65 20.1502 6.727 20.1502 9.3C20.1502 11.873 18.0732 13.95 15.5002 13.95C12.9272 13.95 10.8502 11.873 10.8502 9.3C10.8502 6.727 12.9272 4.65 15.5002 4.65ZM15.5002 26.66C11.6252 26.66 8.19974 24.676 6.20024 21.669C6.24674 18.5845 12.4002 16.895 15.5002 16.895C18.5847 16.895 24.7537 18.5845 24.8002 21.669C22.8007 24.676 19.3752 26.66 15.5002 26.66Z" fill="white"/>
</svg>
